<svg width="99" height="54" viewBox="0 0 99 54" fill="none" xmlns="http://www.w3.org/2000/svg">
<path d="M37.1078 17.9581L31.28 41.6758H26.0622L31.8899 17.9581H37.1078ZM51.8818 37.576L50.9331 41.2692C50.9331 41.2692 47.1044 41.8113 41.751 41.8113C37.3463 41.8113 35.4828 40.4221 36.6687 35.6108L38.4983 28.1906C39.6842 23.4132 42.1915 22.024 46.5962 22.024C52.0174 22.024 55.6089 22.329 55.6089 22.329L54.6602 26.2593H46.3929C44.7665 26.2593 43.8856 26.8353 43.479 28.5294L41.8188 35.3059C41.4122 36.9661 41.9882 37.576 43.6145 37.576H51.8818ZM69.7423 21.9224C74.147 21.9224 75.9428 23.5826 74.7569 28.36L73.0289 35.4075C71.843 40.185 69.2341 41.8452 64.8294 41.8452H59.9165C55.5118 41.8452 53.716 40.185 54.9019 35.4075L56.6299 28.36C57.8158 23.5826 60.4247 21.9224 64.8294 21.9224H69.7423ZM65.0327 37.7115C66.6929 37.7115 67.5739 37.1355 67.9805 35.4414L69.7423 28.2245C70.115 26.5643 69.5729 25.9544 67.9127 25.9544H64.6261C62.9997 25.9544 62.1527 26.5643 61.7461 28.2245L59.9842 35.4414C59.5776 37.1355 60.1198 37.7115 61.7461 37.7115H65.0327ZM74.9232 41.6758L79.7006 22.1934H84.7829L84.4441 23.5826C86.1043 22.8372 88.3067 21.9901 89.9669 21.9901H90.9156C95.1848 21.9901 97.0822 23.0744 95.9302 27.784L92.5081 41.6758H87.4257L90.7462 28.2923C91.1528 26.632 90.5429 26.1577 88.8827 26.1577H88.1034C86.8159 26.1577 85.1895 26.7675 83.5632 27.1403L80.0055 41.6758H74.9232Z" fill="white"/>
<g clip-path="url(#clip0_1524_7954)">
<path d="M0 54.0018L36 6.31299L6.71406 16.2943L14.74 21.2572L0 54.0018Z" fill="#E9522B"/>
<path d="M27.7352 4.30067C27.7352 6.65262 25.772 8.65767 23.4901 8.63917C21.2382 8.62067 19.3166 6.64337 19.3282 4.35386C19.3374 1.96953 21.2798 -0.00545483 23.6148 0.00148307C25.8898 0.00842097 27.7352 1.93484 27.7352 4.30067Z" fill="#E9522B"/>
</g>
<defs>
<clipPath id="clip0_1524_7954">
<rect width="36" height="54" fill="white"/>
</clipPath>
</defs>
</svg>
